<?xml version="1.0" encoding="utf-8"?>
<!-- Generator: Adobe Illustrator 24.0.0, SVG Export Plug-In . SVG Version: 6.00 Build 0)  -->
<svg version="1.1" id="Livello_1" xmlns="http://www.w3.org/2000/svg" xmlns:xlink="http://www.w3.org/1999/xlink" x="0px" y="0px"
	 viewBox="0 0 779.5 807.2" style="enable-background:new 0 0 779.5 807.2;" xml:space="preserve">
<style type="text/css">
	.st0{fill:#AF1F1E;}
	.st1{fill:#3DC0F0;}
	.st2{fill:#BF9618;}
	.st3{fill:#0000FF;}
	.st4{fill:#13AFF0;}
</style>
<g>
	<polygon class="st0" points="1578.3,837.1 1640.5,801.2 1578.3,765.4 	"/>
	<path class="st0" d="M1602.1,500.3c-114.7,0-207.7,164.4-207.7,300s93,245.5,207.7,245.5c114.7,0,207.7-109.9,207.7-245.5
		S1716.9,500.3,1602.1,500.3z M1721.7,807.4c0,0,0,38.8-4.9,57.5c-2.8,10.2-10.8,18.3-21.1,21.1c-18.7,4.9-93.5,4.9-93.5,4.9
		s-74.6,0-93.5-5.1c-10.2-2.8-18.3-10.8-21.1-21.1c-4.9-18.5-4.9-57.5-4.9-57.5s0-38.8,4.9-57.5c2.8-10.2,11-18.5,21.1-21.3
		c18.7-4.9,93.5-4.9,93.5-4.9s74.8,0,93.5,5.1c10.2,2.8,18.3,10.8,21.1,21.1C1721.9,768.4,1721.7,807.4,1721.7,807.4z"/>
</g>
<path d="M1309.6,767c0,135.6-93,245.5-207.7,245.5c-114.7,0-207.7-109.9-207.7-245.5s93-300,207.7-300
	C1216.6,467,1309.6,631.5,1309.6,767z"/>
<path class="st1" d="M2025.9,500.3c-114.7,0-207.7,164.4-207.7,300s93,245.5,207.7,245.5c114.7,0,207.7-109.9,207.7-245.5
	S2140.6,500.3,2025.9,500.3z M2121,754c0.1,2.1,0.1,4.2,0.1,6.3c0,64.8-49.3,139.6-139.6,139.6c-27.7,0-53.5-8.1-75.2-22
	c3.8,0.5,7.7,0.7,11.7,0.7c23,0,44.1-7.8,60.9-21c-21.5-0.4-39.6-14.6-45.8-34.1c3,0.6,6.1,0.9,9.2,0.9c4.5,0,8.8-0.6,12.9-1.7
	c-22.4-4.5-39.4-24.3-39.4-48.1c0-0.2,0-0.4,0-0.6c6.6,3.7,14.2,5.9,22.2,6.1c-13.2-8.8-21.8-23.8-21.8-40.8c0-9,2.4-17.4,6.6-24.7
	c24.2,29.7,60.3,49.2,101.1,51.3c-0.8-3.6-1.3-7.3-1.3-11.2c0-27.1,22-49,49.1-49c14.1,0,26.9,6,35.8,15.5
	c11.2-2.2,21.7-6.3,31.1-11.9c-3.7,11.4-11.4,21.1-21.6,27.1c9.9-1.2,19.4-3.8,28.2-7.7C2138.9,738.4,2130.5,747,2121,754z"/>
<g>
	<path class="st2" d="M2552.7,734.9c-1.9-5.1-4.9-9.7-8.8-13.5c-3.8-3.9-8.4-6.9-13.5-8.8c-4.1-1.6-10.3-3.5-21.8-4
		c-12.4-0.6-16.1-0.7-47.4-0.7c-31.3,0-35,0.1-47.4,0.7c-11.4,0.5-17.7,2.4-21.8,4c-5.1,1.9-9.7,4.9-13.5,8.8
		c-3.9,3.8-6.9,8.4-8.8,13.5c-1.6,4.1-3.5,10.3-4,21.8c-0.6,12.4-0.7,16.1-0.7,47.4c0,31.3,0.1,35,0.7,47.4
		c0.5,11.4,2.4,17.6,4,21.8c1.9,5.1,4.9,9.7,8.8,13.5c3.8,3.9,8.4,6.9,13.5,8.8c4.1,1.6,10.3,3.5,21.8,4c12.4,0.6,16.1,0.7,47.4,0.7
		c31.3,0,35-0.1,47.4-0.7c11.4-0.5,17.7-2.4,21.8-4c10.2-3.9,18.3-12,22.3-22.3c1.6-4.1,3.5-10.3,4-21.8c0.6-12.4,0.7-16.1,0.7-47.4
		c0-31.3-0.1-35-0.7-47.4C2556.2,745.2,2554.3,739,2552.7,734.9z M2461.2,864.3c-33.3,0-60.2-27-60.2-60.2s27-60.2,60.2-60.2
		c33.3,0,60.2,27,60.2,60.2S2494.5,864.3,2461.2,864.3z M2523.9,755.5c-7.8,0-14.1-6.3-14.1-14.1c0-7.8,6.3-14.1,14.1-14.1
		s14.1,6.3,14.1,14.1C2537.9,749.2,2531.6,755.5,2523.9,755.5z"/>
	<path class="st2" d="M2461.2,500.3c-114.5,0-207.2,164.1-207.2,299.4s92.8,245,207.2,245s207.2-109.7,207.2-245
		S2575.7,500.3,2461.2,500.3z M2577.8,852.4c-0.6,12.5-2.6,21-5.5,28.5c-6.1,15.8-18.6,28.2-34.3,34.3c-7.5,2.9-16,4.9-28.5,5.5
		c-12.5,0.6-16.5,0.7-48.4,0.7c-31.9,0-35.9-0.1-48.4-0.7c-12.5-0.6-21-2.6-28.5-5.5c-7.8-2.9-14.9-7.6-20.8-13.5
		c-6-5.9-10.6-13-13.5-20.8c-2.9-7.5-4.9-16-5.5-28.5c-0.6-12.5-0.7-16.5-0.7-48.4s0.1-35.9,0.7-48.4c0.6-12.5,2.6-21,5.4-28.5
		c2.9-7.8,7.6-14.9,13.5-20.8c5.9-6,13-10.6,20.8-13.5c7.5-2.9,16-4.9,28.5-5.5c12.5-0.6,16.5-0.7,48.4-0.7
		c31.9,0,35.9,0.1,48.4,0.7c12.5,0.6,21,2.6,28.5,5.4c7.8,2.9,14.9,7.6,20.8,13.5c6,5.9,10.6,13,13.5,20.8c2.9,7.5,4.9,16,5.5,28.5
		c0.6,12.5,0.7,16.5,0.7,48.4S2578.4,839.9,2577.8,852.4z"/>
	<circle class="st2" cx="2461.2" cy="804" r="39.1"/>
</g>
<g>
	<path class="st3" d="M2854.5,821.2c-3.6-2.8-8.4-4.1-14.4-4.1h-30v34.4l29.5,0h0c2.6,0,5.2-0.3,7.7-0.8c2.5-0.5,4.6-1.4,6.5-2.6
		s3.4-2.9,4.5-5c1.1-2.1,1.7-4.8,1.7-8.1C2860,828.5,2858.2,823.9,2854.5,821.2z"/>
	<path class="st3" d="M2888.8,500.3c-114.7,0-207.7,164.4-207.7,300s93,245.5,207.7,245.5s207.7-109.9,207.7-245.5
		S3003.5,500.3,2888.8,500.3z M2883.9,853c-2.5,4.6-5.8,8.4-9.9,11.3c-4.2,2.9-8.9,5.1-14.2,6.5c-5.4,1.4-10.9,2.1-16.4,2.1h-60.8
		V747.5h59c6,0,11.4,0.5,16.3,1.6c4.9,1.1,9.1,2.8,12.6,5.2c3.5,2.4,6.2,5.6,8.2,9.6s2.9,8.9,2.9,14.8c0,6.3-1.4,11.6-4.3,15.8
		c-2.9,4.2-7.1,7.7-12.7,10.4c7.7,2.2,13.5,6.1,17.3,11.7c3.8,5.6,5.7,12.3,5.7,20.1C2887.6,842.9,2886.3,848.3,2883.9,853z
		 M2911.9,753.9h50.7v14.1h-50.7V753.9z M2981.6,831.3h-65.5c0.3,8,2.4,13.9,6.1,17.5c3.7,3.6,9.1,5.4,16.2,5.4c5,0,9.4-1.3,13-3.8
		c3.6-2.5,5.9-5.2,6.7-8h22c-3.5,10.9-8.9,18.7-16.2,23.4c-7.3,4.7-16,7-26.3,7c-7.1,0-13.6-1.1-19.3-3.4
		c-5.7-2.3-10.6-5.5-14.6-9.8c-4-4.2-7.1-9.2-9.2-15.1c-2.2-5.9-3.2-12.3-3.2-19.3c0-6.8,1.1-13.1,3.3-19c2.2-5.9,5.4-10.9,9.5-15.2
		c4.1-4.3,9-7.6,14.7-10.1c5.7-2.5,12-3.7,18.9-3.7c7.7,0,14.5,1.5,20.2,4.5c5.7,3,10.4,7,14.1,12s6.4,10.8,8,17.2
		C2981.5,817.5,2982.1,824.3,2981.6,831.3z"/>
	<path class="st3" d="M2950.5,801.1c-3-3.3-7.5-4.9-13.6-4.9c-4,0-7.3,0.7-9.9,2c-2.6,1.4-4.7,3-6.3,5c-1.6,2-2.7,4.1-3.3,6.3
		c-0.6,2.2-1,4.2-1.1,6h40.6C2955.5,809.1,2953.4,804.3,2950.5,801.1L2950.5,801.1z"/>
	<path class="st3" d="M2850.1,794.7c3.2-2.3,4.7-6.1,4.7-11.4c0-2.9-0.5-5.3-1.6-7.2c-1.1-1.9-2.5-3.3-4.2-4.4
		c-1.8-1.1-3.8-1.8-6.1-2.2c-2.3-0.4-4.7-0.6-7.1-0.6h-25.8v29.3l27.9,0C2842.9,798.2,2847,797.1,2850.1,794.7z"/>
</g>
<path class="st4" d="M3358.7,500.3c-114.7,0-207.7,164.4-207.7,300s93,245.5,207.7,245.5s207.7-109.9,207.7-245.5
	S3473.4,500.3,3358.7,500.3z M3305.5,719.3l53.9,92.8h-107.8L3305.5,719.3z M3273.4,893.7c-9.2,0-17.3-5.4-21.3-13.2l-20-34.4h147
	l27.4,47.6H3273.4z M3464.9,860.6l-19.1,32.9l-120.5-207.9h41.3c9.2,0,17.1,5.1,21.1,12.7l78.1,135c2.5,3.8,3.8,8.3,3.8,13
	C3469.6,851.7,3468.5,854.3,3464.9,860.6z"/>
</svg>
