<svg id="Livello_1" data-name="Livello 1" xmlns="http://www.w3.org/2000/svg" viewBox="0 0 779.5 807.2"><defs><style>.cls-1{fill:#af1f1e;}</style></defs><title>Tavola disegno 1</title><polygon class="cls-1" points="365.95 390.1 428.15 354.2 365.95 318.4 365.95 390.1"/><path class="cls-1" d="M389.75,53.3c-114.7,0-207.7,164.4-207.7,300s93,245.5,207.7,245.5,207.7-109.9,207.7-245.5S504.55,53.3,389.75,53.3Zm119.6,307.1s0,38.8-4.9,57.5a30.15,30.15,0,0,1-21.1,21.1c-18.7,4.9-93.5,4.9-93.5,4.9s-74.6,0-93.5-5.1a30.15,30.15,0,0,1-21.1-21.1c-4.9-18.5-4.9-57.5-4.9-57.5s0-38.8,4.9-57.5a30.78,30.78,0,0,1,21.1-21.3c18.7-4.9,93.5-4.9,93.5-4.9s74.8,0,93.5,5.1a30.15,30.15,0,0,1,21.1,21.1C509.55,321.4,509.35,360.4,509.35,360.4Z"/></svg>