<svg id="Livello_1" data-name="Livello 1" xmlns="http://www.w3.org/2000/svg" viewBox="0 0 611.16 807.2"><defs><style>.cls-1{fill:#8998a0;}</style></defs><title>clip</title><path class="cls-1" d="M305.58.89C136.83.89,0,242.77,0,442.27s136.83,361.2,305.58,361.2,305.58-161.7,305.58-361.2S474.48.89,305.58.89ZM502.29,407.3a159.82,159.82,0,0,1-2.83,19.62,161.46,161.46,0,0,1-6.07,19,107.22,107.22,0,0,1-9.11,18A160.3,160.3,0,0,1,472,480.52,116.17,116.17,0,0,1,462,490.63c-3.65,3.24-7.29,6.27-11.33,9.31a137.72,137.72,0,0,1-12.54,8.49c-4.65,2.63-9.1,5.06-14,7.29l-86.57,38.43,18.81,27.91c.2,0,.2.2.41.4a.44.44,0,0,1,.4.41c.2,0,.2.2.4.4.21,0,.21.21.41.41a31.62,31.62,0,0,1,4.45,12.13,30.55,30.55,0,0,1-.61,12.14,27.71,27.71,0,0,1-5.46,10.92A35,35,0,0,1,333,631.62a40.36,40.36,0,0,1-14-1,42.21,42.21,0,0,1-12.74-5.66,37.16,37.16,0,0,1-10.12-10.11L237.32,526l151.49-68.37a53.62,53.62,0,0,0,6.07-2.83,52.08,52.08,0,0,0,5.67-3.23c1.82-1.22,3.64-2.43,5.25-3.64a43.31,43.31,0,0,0,4.66-3.85,45.64,45.64,0,0,0,4.45-4.24c1.21-1.42,2.63-3,3.84-4.45a40.44,40.44,0,0,0,3.64-4.66c1-1.41,2-3.23,3-4.85a47.72,47.72,0,0,0,4.86-10.32,67.34,67.34,0,0,0,2.83-10.92,53.88,53.88,0,0,0,1.21-11.33,74.59,74.59,0,0,0-.8-11.53c-.41-2.63-1-5.05-1.62-7.68a56.91,56.91,0,0,0-2.43-7.69,58.32,58.32,0,0,0-3.24-7.48c-1.41-2.63-2.63-5.06-4.24-7.49-1-1.61-2.43-3.43-3.64-5.26a49.73,49.73,0,0,0-4.05-5c-1.62-1.62-3-3.24-4.45-4.65a47.67,47.67,0,0,0-4.65-4.45,46.16,46.16,0,0,0-4.86-4.05c-1.61-1.21-3.44-2.43-5.26-3.64-1.82-1.42-3.64-2.23-5.46-3.44-2-.81-3.64-1.82-5.66-2.83a120.55,120.55,0,0,0-11.73-4.86,128.53,128.53,0,0,0-12.54-3.43,93.88,93.88,0,0,0-12.75-2,90.37,90.37,0,0,0-12.74-.4c-2.83.2-5.66.2-8.49.61a62.52,62.52,0,0,0-8.5,1.41c-3,.61-5.66,1.42-8.49,2.23a65.58,65.58,0,0,0-8.3,2.83l-106.79,44.7a6,6,0,0,0-2,.81c-.6.4-1.21.61-1.82,1-.4.4-1.21.81-1.62,1.21s-1,.81-1.41,1.22-1,.81-1.42,1.21c-.4.2-.81.81-1.21,1.21s-.81,1-1.22,1.42c-.6.41-.8,1-1.21,1.42-.61,1.21-1.21,2-1.82,3.23a22.79,22.79,0,0,0-1.21,3.44c-.21,1.22-.41,2.43-.61,3.64a11.12,11.12,0,0,0,0,3.64,10.28,10.28,0,0,0,.4,2.43,11.39,11.39,0,0,0,.61,2.43c.41.81.61,1.62,1,2.42l1.22,2.43a13.67,13.67,0,0,0,1.21,1.82c.4.41.81,1.22,1.21,1.62a7.71,7.71,0,0,0,1.22,1.42l1.41,1.41c.41.41,1,.81,1.42,1.22s1.21.81,1.62,1.21a8.85,8.85,0,0,0,1.82,1.21c.6.41,1.21.61,1.82,1a19.41,19.41,0,0,0,3.64,1.62,31,31,0,0,0,4,1.22c1.22.2,2.63.4,4.05.6a28.81,28.81,0,0,0,4.25.21,12.86,12.86,0,0,0,2.83-.21,13.79,13.79,0,0,0,2.83-.4c1-.41,1.82-.41,2.83-.81s1.82-.61,2.83-1l92.85-40.05a41.11,41.11,0,0,1,12.94-2.83,39.87,39.87,0,0,1,12.95,1.62,42.41,42.41,0,0,1,11.73,5.86,30.94,30.94,0,0,1,13.15,20.83,26.72,26.72,0,0,1-6.88,21.45,30.5,30.5,0,0,1-10.32,7.28l-93.85,41.26c-2.43,1-4.65,2-6.88,2.83a69,69,0,0,1-6.87,2.23c-2.23.6-4.66,1.41-7.08,1.82L224.77,468c-2.42.41-4.85.61-7.28.81s-4.85.4-7.28.4-4.85,0-7.28-.2-4.86-.2-7.28-.6c-4.86-.81-9.51-1.62-14.16-2.84a105.74,105.74,0,0,1-13.55-4.45A104.44,104.44,0,0,1,155.19,455a91.08,91.08,0,0,1-11.73-7.69c-2.42-2-4.85-4.05-7.08-6.07-2.22-2.22-4.45-4.45-6.47-6.67-2.22-2.43-4-4.86-5.87-7.29a49.7,49.7,0,0,1-5.05-7.68l-3-6.07a54.67,54.67,0,0,1-2.63-6.07c-.8-2-1.41-4.25-2-6.27-.4-2-1-4-1.41-6.07s-.61-4.24-.81-6.27a62.65,62.65,0,0,1-.41-6.27,32.29,32.29,0,0,1,.41-6.27c.2-2,.2-4,.6-6.07.81-3.84,1.62-7.88,2.84-11.73a61.56,61.56,0,0,1,4.85-11.32A84.37,84.37,0,0,1,124,336.71a96.12,96.12,0,0,1,8.5-9.51,59,59,0,0,1,6.47-5.86,67.89,67.89,0,0,1,7.28-5.26,62.82,62.82,0,0,1,7.89-4.66c2.63-1.21,5.67-2.62,8.5-3.84L268.87,264.3a112.14,112.14,0,0,1,10.72-3.85l10.92-3A106.91,106.91,0,0,1,301.43,255c3.64-.61,7.49-1.21,11.13-1.62a104.4,104.4,0,0,1,11.12-1c3.64-.2,7.49-.2,11.13-.2a97.48,97.48,0,0,1,10.92.61c3.44.4,7.28.81,10.92,1.21a194.42,194.42,0,0,1,21.65,4.25,157.91,157.91,0,0,1,21,6.88,161.23,161.23,0,0,1,20,9.3c6.47,3.64,12.74,7.48,18.81,11.73,4,3,8.09,5.87,11.73,9.1a105.49,105.49,0,0,1,10.92,10.12,84.28,84.28,0,0,1,9.91,10.92c3,3.84,5.87,7.69,8.7,11.93a94.25,94.25,0,0,0,6.47,9.11q2.73,4.85,4.86,9.7c1.41,3.24,2.83,6.68,4,9.92s2.23,6.67,3.24,9.91A92.18,92.18,0,0,1,500.47,377c.4,3.44,1,6.67,1.41,10.11.2,3.44.41,6.68.61,10.12C502.49,400.63,502.49,404.06,502.29,407.3Z"/></svg>