<svg id="Livello_1" data-name="Livello 1" xmlns="http://www.w3.org/2000/svg" viewBox="0 0 611.16 807.2"><defs><style>.cls-1{fill:#e18249;}</style></defs><title>illust</title><path class="cls-1" d="M117.23,633.23H493.92V266.84H117.23ZM400.29,527.82c0,1.4-.27,1.94-2,1.94h-26.5c-1.73,0-2.27-.81-2.27-2.21v-135h-.13c0-1.34.54-1.87,1.94-1.87h26.89c1.54,0,2.07.53,2.07,2ZM367.45,353.6c0-11,7.63-17.53,17.53-17.53,10.44,0,17.53,7.09,17.53,17.53,0,11.3-7.36,17.53-17.86,17.53-10.24,0-17.26-6.22-17.26-17.53ZM199.71,527.15l48.62-170.28c.88-3.08,1.4-5.82,1.67-14.32,0-1.14.61-1.67,1.48-1.67h35.85c1.15,0,1.74.27,2,1.67l54.51,184.87c.33,1.4,0,2.21-1.4,2.21H314.22c-1.47,0-2.27-.33-2.54-1.48L297.5,476.58H242.59l0,0-13.57,51.3c-.27,1.47-.81,1.73-2.48,1.73H201.45C199.71,529.63,199.44,529.09,199.71,527.15Z"/><path class="cls-1" d="M270.07,368.3h-.33c-3.61,20-12.71,53.91-19.73,80.47H290.4C285.59,429.84,274.29,388.37,270.07,368.3Z"/><path class="cls-1" d="M305.58,2.31C136.83,2.31,0,244.19,0,443.69s136.83,361.2,305.58,361.2,305.58-161.7,305.58-361.2S474.48,2.31,305.58,2.31ZM100.11,650.36V249.72H511.05V650.36Z"/></svg>