<svg id="Livello_1" data-name="Livello 1" xmlns="http://www.w3.org/2000/svg" viewBox="0 0 611.16 807.2"><defs><style>.cls-1{fill:#005788;}</style></defs><title>photo</title><path class="cls-1" d="M282.65,401.48c0-21.66-13.47-32.66-36.26-32.66-6.73,0-13.19.27-16.33.54v65.91c3.93.27,7.07.27,13.86.27C263.85,435.54,282.65,428.47,282.65,401.48Z"/><path class="cls-1" d="M117.88,633.28H493.27V268.16H117.88ZM376.84,389c14.66,0,25,2.26,30.66,4.73a3.72,3.72,0,0,1,1.66,3.41v23.39c0,1.4-.87,2.27-2.53,1.66-7.6-4.46-18.8-7.33-29.73-7.33l.07.05c-13.53,0-18.06,6.8-18.06,12.4,0,6.2,3.07,10.41,21.13,19.74,26.73,13,35.19,25.32,35.19,43.65,0,27.26-20.86,41.92-49,41.92-14.93,0-27.65-3.13-35-7.33-1.06-.54-1.33-1.39-1.33-2.8V497.45c0-1.66.81-2.26,1.93-1.39a62.77,62.77,0,0,0,34.33,10.13c13.52,0,19.13-5.6,19.13-13.26,0-6.19-3.93-11.53-21.07-20.52-24.26-11.6-34.4-23.4-34.4-43.13C329.84,407.28,347,389,376.84,389Zm-177-44.41c0-1.14,2.4-2,3.8-2,11-.53,27.13-.87,44-.87,47.33,0,65.72,25.93,65.72,59.13,0,43.39-31.46,62-70,62-6.53,0-8.73-.33-13.26-.33v65.58c0,1.4-.54,2-1.93,2h-26.4c-1.4,0-1.93-.54-1.93-1.93Z"/><path class="cls-1" d="M305.58,2.31C136.83,2.31,0,244.19,0,443.69s136.83,361.2,305.58,361.2,305.58-161.7,305.58-361.2S474.48,2.31,305.58,2.31ZM100.82,650.36V251.1H510.34V650.36Z"/></svg>