<svg id="Livello_1" data-name="Livello 1" xmlns="http://www.w3.org/2000/svg" viewBox="0 0 611.16 807.2"><defs><style>.cls-1{fill:#5177af;}</style></defs><title>Tavola disegno 4</title><path class="cls-1" d="M305.58,8.42C136.83,8.42,0,250.29,0,449.8S136.83,811,305.58,811,611.16,649.3,611.16,449.8,474.33,8.42,305.58,8.42ZM227.31,330.63l79.3,136.53H148ZM180.08,587.21a35.46,35.46,0,0,1-31.34-19.42l-29.42-50.61H335.59l40.32,70Zm281.75-48.7-28.1,48.41L256.44,281H317.2a34.9,34.9,0,0,1,31.05,18.69l114.9,198.62a34.63,34.63,0,0,1,5.59,19.13C468.74,525.42,467.12,529.25,461.83,538.51Z"/></svg>