<svg id="Livello_1" data-name="Livello 1" xmlns="http://www.w3.org/2000/svg" viewBox="0 0 611.16 807.2"><defs><style>.cls-1{fill:#087695;}</style></defs><title>linkedin</title><rect class="cls-1" x="191.83" y="376.98" width="48.75" height="178.75"/><ellipse class="cls-1" cx="216.21" cy="327.71" rx="28.44" ry="28.66"/><path class="cls-1" d="M305.58,2.31C136.83,2.31,0,244.19,0,443.69s136.83,361.2,305.58,361.2,305.58-161.7,305.58-361.2S474.48,2.31,305.58,2.31Zm195,553.42A81.25,81.25,0,0,1,419.33,637H191.83a81.25,81.25,0,0,1-81.25-81.25V328.23A81.26,81.26,0,0,1,191.83,247h227.5a81.25,81.25,0,0,1,81.25,81.25Z"/><path class="cls-1" d="M321.83,405.66V377H273.08V555.73h48.75V464.67c0-50.59,65-54.73,65,0v91.06h48.75V445.9C435.58,360.54,344.52,363.64,321.83,405.66Z"/></svg>