<svg id="Livello_1" data-name="Livello 1" xmlns="http://www.w3.org/2000/svg" viewBox="0 0 442.96 442.96"><defs><style>.cls-1{fill:#1d1d1b;}</style></defs><title>LOGO MUSELLA</title><path class="cls-1" d="M237.15,237.89c-7.6,0-16,3.77-22.34,10.08-11.08,11-13.56,26.3-5.54,34.23,3.63,3.58,9,5.15,15.24,4.4a33.84,33.84,0,0,0,19.4-9.88c11.08-10.94,13.57-26.3,5.55-34.22A17,17,0,0,0,237.15,237.89Z"/><path class="cls-1" d="M245.35,294.89a47.15,47.15,0,0,1-19,6.82,40.32,40.32,0,0,1-4.88.3c-9.14,0-17.13-3.13-23.12-9.05-6.88-6.8-10-16.42-8.88-27.08,1.12-10.41,6.24-20.59,14.42-28.67,9.77-9.65,22.87-14.93,35.07-14.39h0l-2.29-21.31a2.69,2.69,0,0,0-3.07-2.34L164.68,209a2.63,2.63,0,0,0-2.29,2.33c-1.57,15.49-8.68,49.1-36.28,101.28-.17.32-.35.64-.55.94l-2.11,3.19a2.6,2.6,0,0,0-.52,2.65l.71,1.95a2.62,2.62,0,0,0,1.23,1.43c9.13,4.86,32.79,17.29,57.47,28.8,34.9,16.28,51.72,21.3,59.5,22.76a2.63,2.63,0,0,0,3.14-2.77c-.74-9.37-1.71-24.35-1.87-39.55-.16-15.77.58-28,2.24-37.08Z"/><path class="cls-1" d="M221.48,0C99.16,0,0,99.16,0,221.48S99.16,443,221.48,443,443,343.8,443,221.48,343.8,0,221.48,0ZM414.06,272.9c-3.18,3.4-20.59,27.33-29.79,67.61l0,.05L375.52,368a1.31,1.31,0,0,1-2.54-.21l-3.87-27.83c-6.05-43.45-12.08-56-14.47-59.38a.23.23,0,0,0-.38,0c-4.14,5.25-13,27.27-19.16,60.69v0L328.6,363.9a2,2,0,0,1-3.94-.14l-6.32-30.15c-3.86-18.4-7.94-32.5-10.78-40.43a.24.24,0,0,0-.47,0c-1.77,10.44-3.16,27-3.45,43.18l-.52,28.54a1.57,1.57,0,0,1-3,.57l-11.27-26.28c-16.13-37.61-24.85-48.11-28.13-51a.23.23,0,0,0-.37.07c-1.57,3.5-4.42,13.79-4.13,42.15.24,23.32,2.52,46.75,2.55,47l.19,1.93-.77,1.79a11.75,11.75,0,0,1-7.3,6.5,18.61,18.61,0,0,1-6,.86c-28.34,0-109-42.6-133.11-55.65l-2.47-1.34a.37.37,0,0,1-.12-.13l-1.78-4.9c-1.76-4.81-4.19-13.1-.72-16.9l4.24-5.85c35.2-66.81,34.26-101.77,34.25-102.12l-.34-6.68a.24.24,0,0,1,.22-.25l102.47-14.56a.26.26,0,0,1,.29.22l4.92,45.86h0a29.36,29.36,0,0,1,5.36,4.16c10.23,10.11,11.86,26.55,4.63,41.54a.24.24,0,0,0,.17.36c6.51,1.58,14.67,9.06,26.55,31.83A.31.31,0,0,0,290,304c3-29.11,9.33-33.93,15.24-34.48,8-.73,13.84,4.88,22,35.2a.31.31,0,0,0,.58,0c7.86-27.13,16.72-40.37,27-40.37H355c7.71.17,15.79,5.26,23.21,38.17a.29.29,0,0,0,.56,0c8.5-28.27,24-39,29.27-47.35,4.93-7.77,6.55-9.12,12.77-26.17,2.36-6.46.77-21.23-.78-27.93-2.22-9.61-21.61-38.52-28.17-44.8A294.2,294.2,0,0,0,316.05,104C246.17,70.06,180.4,74.24,120.57,116.41,115.33,120.1,94,133.21,87,137.92a.25.25,0,0,0,.23.43l34.29-11.48a.25.25,0,0,1,.2.45l-40,21.18s-22.56,13.16-25.3,8.84c-4.72-7.43,3.8-14.46,12-21.27,8.93-7.37,23.46-18.16,43.17-32,64-45.08,137.08-49.77,211.48-13.57,55.47,27,83.25,58.54,84.76,60.22.06.07,11.87,15.44,12.45,16.22,2.66,3.59,11.11,19,12.83,23.06,4.6,11,4.2,34.84,2.68,40.11C431.51,245,427.71,258.3,414.06,272.9Z"/></svg>