<svg id="Livello_1" data-name="Livello 1" xmlns="http://www.w3.org/2000/svg" viewBox="0 0 611.16 807.2"><defs><style>.cls-1{fill:#af1f1e;}</style></defs><title>Tavola disegno 1</title><polygon class="cls-1" points="270.56 500.15 362.08 447.33 270.56 394.66 270.56 500.15"/><path class="cls-1" d="M305.58,4.63C136.83,4.63,0,246.5,0,446S136.83,807.2,305.58,807.2,611.16,645.51,611.16,446,474.48,4.63,305.58,4.63Zm176,451.82s0,57.09-7.21,84.6a44.35,44.35,0,0,1-31,31c-27.51,7.21-137.56,7.21-137.56,7.21s-109.76,0-137.57-7.5a44.36,44.36,0,0,1-31-31c-7.21-27.21-7.21-84.59-7.21-84.59s0-57.09,7.21-84.6a45.29,45.29,0,0,1,31-31.34C195.68,333,305.73,333,305.73,333s110,0,137.56,7.51a44.35,44.35,0,0,1,31,31C481.84,399.07,481.54,456.45,481.54,456.45Z"/></svg>