<svg id="Livello_1" data-name="Livello 1" xmlns="http://www.w3.org/2000/svg" viewBox="0 0 611.16 807.2"><defs><style>.cls-1{fill:#ebb531;}</style></defs><title>Tavola disegno 5</title><path class="cls-1" d="M440.2,348.17a57.6,57.6,0,0,0-32.81-32.88c-6-2.36-15.15-5.16-32.07-5.89-18.25-.89-23.69-1-69.74-1s-51.49.15-69.74,1c-16.77.73-26,3.53-32.07,5.89A57.6,57.6,0,0,0,171,348.17c-2.35,6-5.15,15.18-5.88,32.14-.89,18.28-1,23.73-1,69.88s.14,51.59,1,69.87c.73,16.81,3.53,26,5.88,32.14a57.6,57.6,0,0,0,32.81,32.88c6,2.36,15.15,5.16,32.07,5.9,18.25.88,23.69,1,69.74,1s51.49-.15,69.74-1c16.77-.74,26-3.54,32.07-5.9A57.23,57.23,0,0,0,440.2,552.2c2.36-6,5.15-15.18,5.89-32.14.88-18.28,1-23.73,1-69.87s-.15-51.6-1-69.88C445.35,363.35,442.56,354.21,440.2,348.17ZM305.58,538.93a88.75,88.75,0,1,1,88.57-88.74A88.65,88.65,0,0,1,305.58,538.93Zm92.25-160.39a20.79,20.79,0,1,1,20.74-20.79A20.75,20.75,0,0,1,397.83,378.54Z"/><path class="cls-1" d="M305.58,2.31C137.12,2.31.74,244.24.74,443.7S137.27,804.89,305.58,804.89,610.43,643.16,610.43,443.7,474,2.31,305.58,2.31ZM477.13,521.39c-.88,18.43-3.83,31-8.09,42A88.42,88.42,0,0,1,418.57,614c-11,4.28-23.54,7.23-41.93,8.11s-24.27,1-71.21,1-52.81-.14-71.21-1-30.89-3.83-41.93-8.11a85.82,85.82,0,0,1-30.6-19.9,84.15,84.15,0,0,1-19.86-30.66c-4.27-11.06-7.21-23.59-8.09-42s-1-24.32-1-71.35.15-52.93,1-71.35,3.82-31,7.94-42A86,86,0,0,1,161.54,306a84,84,0,0,1,30.61-19.91c11-4.27,23.54-7.22,41.93-8.1s24.27-1,71.21-1,52.81.15,71.21,1,30.89,3.83,41.93,8a85.82,85.82,0,0,1,30.6,19.9,84.15,84.15,0,0,1,19.86,30.66c4.27,11.06,7.21,23.59,8.09,42s1,24.32,1,71.35S478,503,477.13,521.39Z"/><ellipse class="cls-1" cx="305.58" cy="450.04" rx="57.53" ry="57.64"/></svg>