<svg id="Livello_1" data-name="Livello 1" xmlns="http://www.w3.org/2000/svg" viewBox="0 0 611.16 807.2"><defs><style>.cls-1{fill:#1d1d1b;}</style></defs><title>Tavola disegno 6</title><path class="cls-1" d="M255.12,474.44c-5.3-4.12-12.36-6-21.19-6H189.79V519h43.4a57.61,57.61,0,0,0,11.33-1.18,27.8,27.8,0,0,0,9.57-3.82,19,19,0,0,0,6.62-7.36,25.55,25.55,0,0,0,2.5-11.92C263.21,485.18,260.56,478.41,255.12,474.44Z"/><path class="cls-1" d="M305.58,2.31C136.83,2.31,0,244.19,0,443.69s136.83,361.2,305.58,361.2,305.58-161.7,305.58-361.2S474.33,2.31,305.58,2.31Zm-7.21,518.92a48.29,48.29,0,0,1-14.56,16.62,66.11,66.11,0,0,1-20.9,9.57,96,96,0,0,1-24.12,3.09H149.33V366h86.81a109.49,109.49,0,0,1,24,2.35A52.93,52.93,0,0,1,278.66,376a36.4,36.4,0,0,1,12.06,14.13c2.94,5.88,4.27,13.09,4.27,21.77,0,9.27-2.06,17.07-6.33,23.25s-10.44,11.33-18.68,15.3c11.32,3.24,19.86,9,25.45,17.21s8.39,18.1,8.39,29.58A52,52,0,0,1,298.37,521.23Zm41.2-145.8h74.59v20.74H339.57ZM442.11,489.3H345.75c.44,11.77,3.53,20.45,9,25.75S368.11,523,378.56,523a32.94,32.94,0,0,0,19.12-5.59c5.3-3.68,8.68-7.65,9.86-11.77h32.37q-7.73,24.06-23.84,34.43c-10.74,6.91-23.54,10.3-38.69,10.3-10.45,0-20-1.62-28.4-5a59.1,59.1,0,0,1-21.48-14.42A61.92,61.92,0,0,1,314,508.72a80.34,80.34,0,0,1-4.71-28.39,79.33,79.33,0,0,1,4.85-28,64.85,64.85,0,0,1,14-22.36,65.85,65.85,0,0,1,21.63-14.86,68.4,68.4,0,0,1,27.81-5.44c11.32,0,21.33,2.2,29.71,6.62A60.37,60.37,0,0,1,428,434a71.43,71.43,0,0,1,11.77,25.31A101.67,101.67,0,0,1,442.11,489.3Z"/><path class="cls-1" d="M396.36,444.87c-4.42-4.86-11-7.21-20-7.21-5.89,0-10.74,1-14.57,2.94a29.5,29.5,0,0,0-9.27,7.36,25.56,25.56,0,0,0-4.85,9.27,43.8,43.8,0,0,0-1.62,8.82h59.73c-2.06-9.41-5.15-16.47-9.41-21.18Z"/><path class="cls-1" d="M248.64,435.45c4.71-3.38,6.92-9,6.92-16.77,0-4.27-.74-7.8-2.36-10.59a18.5,18.5,0,0,0-6.18-6.48,25.24,25.24,0,0,0-9-3.23,61.16,61.16,0,0,0-10.45-.89h-38V440.6h41.05C238.05,440.6,244.08,439,248.64,435.45Z"/></svg>