<svg xmlns="http://www.w3.org/2000/svg" viewBox="0 0 609.69 802.57"><defs><style>.cls-1{fill:#ebb531;}</style></defs><title>Tavola disegno 2</title><g id="Livello_2" data-name="Livello 2"><g id="Livello_1-2" data-name="Livello 1"><path class="cls-1" d="M439.47,345.85A57.55,57.55,0,0,0,406.66,313c-6-2.36-15.16-5.16-32.08-5.9-18.24-.88-23.68-1-69.74-1s-51.49.15-69.73,1c-16.77.74-26,3.54-32.08,5.9a57.55,57.55,0,0,0-32.81,32.87c-2.35,6-5.14,15.19-5.88,32.14-.88,18.28-1,23.74-1,69.88s.15,51.6,1,69.88c.74,16.81,3.53,26,5.88,32.14A57.55,57.55,0,0,0,203,582.76c6,2.36,15.16,5.16,32.08,5.9,18.24.89,23.68,1,69.73,1s51.5-.14,69.74-1c16.77-.74,26-3.54,32.08-5.9a57.3,57.3,0,0,0,32.81-32.87c2.35-6,5.14-15.19,5.88-32.14.88-18.28,1-23.73,1-69.88s-.15-51.6-1-69.88C444.61,361,441.82,351.9,439.47,345.85ZM304.84,536.62a88.75,88.75,0,1,1,88.57-88.75A88.65,88.65,0,0,1,304.84,536.62Zm92.25-160.4a20.79,20.79,0,1,1,20.75-20.78A20.74,20.74,0,0,1,397.09,376.22Z"/><path class="cls-1" d="M304.84,0C136.39,0,0,241.92,0,441.39S136.53,802.57,304.84,802.57,609.69,640.85,609.69,441.39,473.3,0,304.84,0ZM476.39,519.08c-.88,18.43-3.82,31-8.09,42a88.36,88.36,0,0,1-50.46,50.57c-11,4.27-23.54,7.22-41.93,8.11s-24.28,1-71.21,1-52.82-.15-71.21-1-30.9-3.84-41.93-8.11a86,86,0,0,1-30.6-19.9,84.22,84.22,0,0,1-19.87-30.67c-4.26-11.05-7.21-23.58-8.09-42s-1-24.33-1-71.36.15-52.92,1-71.35,3.83-31,7.95-42a86,86,0,0,1,19.86-30.67,84.11,84.11,0,0,1,30.6-19.9c11-4.28,23.54-7.22,41.93-8.11s24.28-1,71.21-1,52.82.15,71.21,1,30.9,3.83,41.93,8a86,86,0,0,1,30.6,19.9,84.06,84.06,0,0,1,19.86,30.67c4.27,11.06,7.21,23.59,8.1,42s1,24.33,1,71.36S477.28,500.65,476.39,519.08Z"/><ellipse class="cls-1" cx="304.84" cy="447.72" rx="57.53" ry="57.64"/></g></g></svg>