<svg id="Livello_1" data-name="Livello 1" xmlns="http://www.w3.org/2000/svg" viewBox="0 0 611.16 807.2"><defs><style>.cls-1{fill:#3dc0f0;}</style></defs><title>Tavola disegno 3</title><path class="cls-1" d="M305.58,4.63C136.83,4.63,0,246.5,0,446S136.83,807.2,305.58,807.2,611.16,645.51,611.16,446,474.33,4.63,305.58,4.63ZM445.5,377.89c.14,3.09.14,6.18.14,9.27,0,95.33-72.53,205.38-205.38,205.38a204.43,204.43,0,0,1-110.64-32.36,132.94,132.94,0,0,0,17.21,1,144.32,144.32,0,0,0,89.6-30.9,72.12,72.12,0,0,1-67.38-50.17,69.35,69.35,0,0,0,13.53,1.32,72.88,72.88,0,0,0,19-2.5,72.3,72.3,0,0,1-58-70.77v-.88a70.48,70.48,0,0,0,32.67,9,72.42,72.42,0,0,1-22.37-96.37,205,205,0,0,0,148.75,75.47,75.15,75.15,0,0,1-1.91-16.47,72.23,72.23,0,0,1,124.91-49.29,143.54,143.54,0,0,0,45.75-17.51A72,72,0,0,1,439.61,352a145.32,145.32,0,0,0,41.49-11.33A145.18,145.18,0,0,1,445.5,377.89Z"/></svg>